<svg width="18" height="20" viewBox="0 0 18 20" fill="none" xmlns="http://www.w3.org/2000/svg">
<g clip-path="url(#clip0_2002_673)">
<path d="M9 0.833008C11.188 0.833008 13.2865 1.7022 14.8336 3.24938C16.3808 4.79655 17.25 6.89497 17.25 9.08301C17.25 11.9008 15.7137 14.2072 14.0948 15.8618C13.2859 16.6793 12.4034 17.4207 11.4585 18.0764L11.068 18.3423L10.8847 18.4642L10.5391 18.6842L10.2311 18.8721L9.84975 19.0939C9.5908 19.2413 9.29796 19.3188 9 19.3188C8.70204 19.3188 8.4092 19.2413 8.15025 19.0939L7.76892 18.8721L7.29225 18.5788L7.11625 18.4642L6.74042 18.2139C5.72106 17.524 4.77148 16.7362 3.90517 15.8618C2.28633 14.2063 0.75 11.9008 0.75 9.08301C0.75 6.89497 1.61919 4.79655 3.16637 3.24938C4.71354 1.7022 6.81196 0.833008 9 0.833008ZM9 6.33301C8.63887 6.33301 8.28127 6.40414 7.94762 6.54234C7.61398 6.68054 7.31082 6.8831 7.05546 7.13846C6.8001 7.39382 6.59753 7.69698 6.45933 8.03063C6.32113 8.36427 6.25 8.72187 6.25 9.08301C6.25 9.44414 6.32113 9.80174 6.45933 10.1354C6.59753 10.469 6.8001 10.7722 7.05546 11.0276C7.31082 11.2829 7.61398 11.4855 7.94762 11.6237C8.28127 11.7619 8.63887 11.833 9 11.833C9.72935 11.833 10.4288 11.5433 10.9445 11.0276C11.4603 10.5118 11.75 9.81235 11.75 9.08301C11.75 8.35366 11.4603 7.65419 10.9445 7.13846C10.4288 6.62274 9.72935 6.33301 9 6.33301Z" fill="#DC4242"/>
</g>
<defs>
<clipPath id="clip0_2002_673">
<rect width="18" height="20" fill="white"/>
</clipPath>
</defs>
</svg>
