<svg width="30" height="30" viewBox="0 0 30 30" fill="none" xmlns="http://www.w3.org/2000/svg">
<g clip-path="url(#clip0_2002_692)">
<path d="M15.0037 0H14.9963C6.72563 0 0 6.7275 0 15C0 18.2812 1.0575 21.3225 2.85563 23.7919L0.98625 29.3644L6.75188 27.5213C9.12375 29.0925 11.9531 30 15.0037 30C23.2744 30 30 23.2706 30 15C30 6.72938 23.2744 0 15.0037 0Z" fill="#4CAF50"/>
<path d="M23.7318 21.1816C23.3699 22.2035 21.9337 23.051 20.788 23.2985C20.0043 23.4654 18.9805 23.5985 15.5343 22.1697C11.1262 20.3435 8.28741 15.8641 8.06616 15.5735C7.85429 15.2829 6.28491 13.2016 6.28491 11.0491C6.28491 8.8966 7.37804 7.84848 7.81866 7.39848C8.18054 7.0291 8.77866 6.86035 9.35241 6.86035C9.53804 6.86035 9.70491 6.86973 9.85491 6.87723C10.2955 6.89598 10.5168 6.92223 10.8074 7.61785C11.1693 8.48973 12.0505 10.6422 12.1555 10.8635C12.2624 11.0847 12.3693 11.3847 12.2193 11.6754C12.0787 11.9754 11.9549 12.1085 11.7337 12.3635C11.5124 12.6185 11.3024 12.8135 11.0812 13.0872C10.8787 13.3254 10.6499 13.5804 10.9049 14.021C11.1599 14.4522 12.0412 15.8904 13.3387 17.0454C15.013 18.536 16.3705 19.0122 16.8562 19.2147C17.218 19.3647 17.6493 19.3291 17.9137 19.0479C18.2493 18.686 18.6637 18.086 19.0855 17.4954C19.3855 17.0716 19.7643 17.0191 20.1618 17.1691C20.5668 17.3097 22.7099 18.3691 23.1505 18.5885C23.5912 18.8097 23.8818 18.9147 23.9887 19.1004C24.0937 19.286 24.0937 20.1579 23.7318 21.1816Z" fill="#FAFAFA"/>
</g>
<defs>
<clipPath id="clip0_2002_692">
<rect width="30" height="30" fill="white"/>
</clipPath>
</defs>
</svg>
